<svg xmlns="http://www.w3.org/2000/svg" width="1024" height="1024" viewBox="0 0 1024 1024"><rect width="1024" height="1024" fill="#000000"/><path fill="#F36404" fill-rule="evenodd" d="M512.00,103.29 L848.19,265.19 L931.22,628.98 L698.57,920.71 L325.43,920.71 L92.78,628.98 L175.81,265.19 Z M512.00,887.18 L235.32,753.94 L166.98,454.54 L358.45,214.45 L665.55,214.45 L857.02,454.54 L788.68,753.94 Z"/><g transform="translate(518.0 533.2916934009799) scale(1.6) translate(-107.0 -77.5)"><path fill="#F36404" fill-rule="evenodd" d="M0,0 L160,0 C198,0 214,18 214,52 C214,86 198,105 160,105 L152,105 L214,155 L154,155 L94,105 L44,105 L44,155 L0,155 Z M44,37 L150,37 C164,37 170,43 170,55 C170,67 164,73 150,73 L44,73 Z"/></g><circle cx="800" cy="800" r="140" fill="#000000"/><circle cx="800" cy="800" r="122" fill="none" stroke="#F36404" stroke-width="12"/><g transform="translate(800 800)"><g transform="scale(7.4)" fill="none" stroke="#61DAFB" stroke-width="1.3"><circle r="2.1" fill="#61DAFB" stroke="none"/><ellipse rx="11" ry="4.2"/><ellipse rx="11" ry="4.2" transform="rotate(60)"/><ellipse rx="11" ry="4.2" transform="rotate(120)"/></g></g></svg>